<svg xmlns="http://www.w3.org/2000/svg" viewBox="0 0 52 40.97"><defs><style>.cls-1{fill:none;stroke:#d9d9d9;stroke-miterlimit:10;}.cls-2{fill:#c0dbf2;}.cls-3{fill:#565a8e;}.cls-4{fill:#d7e9fc;}.cls-5{fill:#f0f7ff;}.cls-6{fill:#abb0ec;}.cls-7{fill:#c1c1ff;}.cls-8{fill:#1fc73d;}.cls-9{fill:#1aa432;}</style></defs><g id="Layer_2" data-name="Layer 2"><g id="Layer_1-2" data-name="Layer 1"><rect class="cls-1" x="0.5" y="0.5" width="51" height="39.97" rx="5"/><path class="cls-2" d="M32.43,34.27l3.68.92,3.67-.92V12.21H32.43l-.61,11Z"/><path class="cls-3" d="M35.19,23.24H37v1.84H35.19Z"/><path class="cls-3" d="M35.19,19.57H37V21.4H35.19Z"/><path class="cls-3" d="M35.19,15.89H37v1.84H35.19Z"/><path class="cls-3" d="M35.19,26.92H37v1.84H35.19Z"/><path class="cls-3" d="M35.19,30.59H37v1.84H35.19Z"/><path class="cls-4" d="M19.57,34.27l-3.68.61-3.67-.61V15.89h7.35l.61,10Z"/><path class="cls-5" d="M19.57,4.86V34.27l2,.73,1.67-.73L26,26.92l.61-10.11L26,4.86Z"/><path class="cls-4" d="M32.43,4.86H26V26.92l2.76,7.35,2.06.73,1.61-.73Z"/><path class="cls-6" d="M15,23.24h1.84v1.84H15Z"/><path class="cls-6" d="M15,19.57h1.84V21.4H15Z"/><path class="cls-6" d="M15,26.92h1.84v1.84H15Z"/><path class="cls-6" d="M15,30.59h1.84v1.84H15Z"/><path class="cls-7" d="M23.24,15.89h1.84v1.84H23.24Z"/><path class="cls-7" d="M23.24,12.21h1.84v1.84H23.24Z"/><path class="cls-7" d="M23.24,19.57h1.84V21.4H23.24Z"/><path class="cls-7" d="M23.24,23.24h1.84v1.84H23.24Z"/><path class="cls-6" d="M26.92,15.89h1.84v1.84H26.92Z"/><path class="cls-6" d="M26.92,12.21h1.84v1.84H26.92Z"/><path class="cls-7" d="M23.24,8.54h1.84v1.84H23.24Z"/><path class="cls-6" d="M26.92,8.54h1.84v1.84H26.92Z"/><path class="cls-6" d="M26.92,19.57h1.84V21.4H26.92Z"/><path class="cls-6" d="M26.92,23.24h1.84v1.84H26.92Z"/><path class="cls-7" d="M23.24,26.92v7.35l1.38.61L26,34.27l.61-3.68L26,26.92Z"/><path class="cls-3" d="M28.76,26.92H26v7.35l1.38.61,1.38-.61Z"/><path class="cls-8" d="M10.38,34.27v1.84H26l.61-.92L26,34.27Z"/><path class="cls-9" d="M26,34.27H41.62v1.84H26Z"/></g></g></svg>