<svg xmlns="http://www.w3.org/2000/svg" viewBox="0 0 103 97"><defs><style>.cls-1{fill:none;stroke:#d9d9d9;stroke-miterlimit:10;}.cls-2{fill:#c1c1ff;}.cls-3{fill:#565a8e;}</style></defs><g id="Layer_2" data-name="Layer 2"><g id="Capa_1" data-name="Capa 1"><ellipse class="cls-1" cx="51.5" cy="48.5" rx="51" ry="48"/><path class="cls-2" d="M28.24,83.79a5.66,5.66,0,0,1-5.67-5.66V18.87a5.66,5.66,0,0,1,5.67-5.66H53.33c4.32,0,27.1,22.78,27.1,27.09V78.13a5.66,5.66,0,0,1-5.67,5.66Z"/><path class="cls-3" d="M80.43,40.3v2.4a9.14,9.14,0,0,0-9.14-9.14H65.73a5.66,5.66,0,0,1-5.66-5.66V22.34a9.13,9.13,0,0,0-9.13-9.13h2.39A16.25,16.25,0,0,1,64.83,18L75.66,28.8a16.28,16.28,0,0,1,4.77,11.5Z"/><path class="cls-3" d="M35,47.37H30.83a3.75,3.75,0,0,1-3.74-3.74V39.5a3.74,3.74,0,0,1,3.74-3.73H35a3.73,3.73,0,0,1,3.73,3.73v4.13A3.74,3.74,0,0,1,35,47.37Zm-4.13-9.23a1.36,1.36,0,0,0-1.37,1.36v4.13A1.37,1.37,0,0,0,30.83,45H35a1.37,1.37,0,0,0,1.37-1.37V39.5A1.37,1.37,0,0,0,35,38.14Z"/><path class="cls-3" d="M35,61.74H30.83A3.74,3.74,0,0,1,27.09,58V53.88a3.75,3.75,0,0,1,3.74-3.74H35a3.74,3.74,0,0,1,3.73,3.74V58A3.73,3.73,0,0,1,35,61.74Zm-4.13-9.23a1.37,1.37,0,0,0-1.37,1.37V58a1.37,1.37,0,0,0,1.37,1.37H35A1.38,1.38,0,0,0,36.33,58V53.88A1.37,1.37,0,0,0,35,52.51Z"/><path class="cls-3" d="M35,76.12H30.83a3.75,3.75,0,0,1-3.74-3.74V68.25a3.74,3.74,0,0,1,3.74-3.73H35a3.73,3.73,0,0,1,3.73,3.73v4.13A3.74,3.74,0,0,1,35,76.12Zm-4.13-9.24a1.37,1.37,0,0,0-1.37,1.37v4.13a1.37,1.37,0,0,0,1.37,1.37H35a1.37,1.37,0,0,0,1.37-1.37V68.25A1.38,1.38,0,0,0,35,66.88Z"/><path class="cls-3" d="M68.78,40.23H43.39a1.18,1.18,0,1,1,0-2.36H68.78a1.18,1.18,0,0,1,0,2.36Z"/><path class="cls-3" d="M62.06,45.27H43.39a1.19,1.19,0,1,1,0-2.37H62.06a1.19,1.19,0,1,1,0,2.37Z"/><path class="cls-3" d="M68.78,54.61H43.39a1.19,1.19,0,1,1,0-2.37H68.78a1.19,1.19,0,0,1,0,2.37Z"/><path class="cls-3" d="M62.06,59.64H43.39a1.18,1.18,0,1,1,0-2.36H62.06a1.18,1.18,0,1,1,0,2.36Z"/><path class="cls-3" d="M68.78,69H43.39a1.18,1.18,0,1,1,0-2.36H68.78a1.18,1.18,0,0,1,0,2.36Z"/><path class="cls-3" d="M62.06,74H43.39a1.19,1.19,0,1,1,0-2.37H62.06a1.19,1.19,0,1,1,0,2.37Z"/><path class="cls-3" d="M54.3,22.14H31.42a1.19,1.19,0,0,1,0-2.37H54.3a1.19,1.19,0,0,1,0,2.37Z"/></g></g></svg>