<svg xmlns="http://www.w3.org/2000/svg" xmlns:xlink="http://www.w3.org/1999/xlink" viewBox="0 0 103 97"><defs><style>.cls-1{fill:none;stroke:#d9d9d9;stroke-miterlimit:10;}.cls-2{fill:#b5b8dd;}.cls-3{fill:url(#linear-gradient);}.cls-4{fill:url(#linear-gradient-2);}.cls-5{fill:url(#linear-gradient-3);}.cls-6{fill:url(#linear-gradient-4);}.cls-7{fill:url(#linear-gradient-5);}.cls-8{fill:url(#linear-gradient-6);}.cls-9{fill:url(#linear-gradient-7);}.cls-10{fill:url(#linear-gradient-8);}.cls-11{fill:url(#linear-gradient-9);}.cls-12{fill:url(#linear-gradient-10);}.cls-13{fill:url(#linear-gradient-11);}.cls-14{fill:url(#linear-gradient-12);}.cls-15{fill:url(#linear-gradient-13);}.cls-16{fill:url(#linear-gradient-14);}.cls-17{fill:url(#linear-gradient-15);}.cls-18{fill:url(#linear-gradient-16);}.cls-19{fill:url(#linear-gradient-17);}.cls-20{fill:url(#linear-gradient-18);}.cls-21{fill:url(#linear-gradient-19);}.cls-22{fill:url(#linear-gradient-20);}.cls-23{isolation:isolate;font-size:7.63px;fill:#010101;font-family:Montserrat-Bold, Montserrat;font-weight:700;}</style><linearGradient id="linear-gradient" x1="55.81" y1="1245.01" x2="70.63" y2="1247.05" gradientTransform="translate(0.25 -1198.37)" gradientUnits="userSpaceOnUse"><stop offset="0" stop-color="#565a90" stop-opacity="0"/><stop offset="1" stop-color="#565a90"/></linearGradient><linearGradient id="linear-gradient-2" x1="46.16" y1="1269" x2="46.16" y2="1275.59" xlink:href="#linear-gradient"/><linearGradient id="linear-gradient-3" x1="34.63" y1="1206.22" x2="43.51" y2="1233.84" gradientTransform="translate(0.25 -1198.37)" gradientUnits="userSpaceOnUse"><stop offset="0" stop-color="#2e304f" stop-opacity="0"/><stop offset="1" stop-color="#2e304f" stop-opacity="0.96"/></linearGradient><linearGradient id="linear-gradient-4" x1="26.02" y1="1209.22" x2="34.81" y2="1236.59" xlink:href="#linear-gradient-3"/><linearGradient id="linear-gradient-5" x1="22.73" y1="1210.27" x2="31.55" y2="1237.71" xlink:href="#linear-gradient-3"/><linearGradient id="linear-gradient-6" x1="19.7" y1="1239.42" x2="28.52" y2="1266.86" xlink:href="#linear-gradient-3"/><linearGradient id="linear-gradient-7" x1="39.98" y1="1230.84" x2="75.61" y2="1264.42" gradientTransform="translate(0.25 -1198.37)" gradientUnits="userSpaceOnUse"><stop offset="0" stop-color="#939598"/><stop offset="0.17" stop-color="#76777a"/><stop offset="0.36" stop-color="#5f5f61"/><stop offset="0.55" stop-color="#4e4e50"/><stop offset="0.76" stop-color="#444345"/><stop offset="1" stop-color="#414042"/></linearGradient><linearGradient id="linear-gradient-8" x1="30.43" y1="1241.36" x2="66.06" y2="1274.95" xlink:href="#linear-gradient-7"/><linearGradient id="linear-gradient-9" x1="35.82" y1="900.45" x2="73.04" y2="900.45" gradientTransform="matrix(1, 0, 0, -1, 0, 970.78)" gradientUnits="userSpaceOnUse"><stop offset="0" stop-color="#d2dee3"/><stop offset="0.17" stop-color="#cfdbe0"/><stop offset="0.31" stop-color="#c6d1d6"/><stop offset="0.43" stop-color="#b6c1c5"/><stop offset="0.55" stop-color="#a0a9ad"/><stop offset="0.66" stop-color="#848c8f"/><stop offset="0.77" stop-color="#616769"/><stop offset="0.88" stop-color="#383b3c"/><stop offset="0.98" stop-color="#090a0a"/><stop offset="1"/></linearGradient><linearGradient id="linear-gradient-10" x1="57.7" y1="894.88" x2="82.73" y2="894.88" gradientTransform="matrix(1, 0, 0, -1, 0, 970.78)" gradientUnits="userSpaceOnUse"><stop offset="0" stop-color="#d2dee3"/><stop offset="0.13" stop-color="#cdd9de"/><stop offset="0.28" stop-color="#c0cbcf"/><stop offset="0.44" stop-color="#aab3b7"/><stop offset="0.62" stop-color="#8b9295"/><stop offset="0.8" stop-color="#636769"/><stop offset="0.98" stop-color="#333434"/><stop offset="1" stop-color="#2f2f2f"/></linearGradient><linearGradient id="linear-gradient-11" x1="50.65" y1="1260.34" x2="56.14" y2="1265.84" gradientTransform="translate(0.25 -1198.37)" gradientUnits="userSpaceOnUse"><stop offset="0" stop-color="#776f6f" stop-opacity="0"/><stop offset="0.81" stop-color="#696464" stop-opacity="0.35"/><stop offset="1" stop-color="#454545"/></linearGradient><linearGradient id="linear-gradient-12" x1="46.93" y1="1272.55" x2="52.43" y2="1278.05" xlink:href="#linear-gradient-11"/><linearGradient id="linear-gradient-13" x1="55.64" y1="1263.73" x2="59.4" y2="1267.49" xlink:href="#linear-gradient-11"/><linearGradient id="linear-gradient-14" x1="41.06" y1="1269.63" x2="44.83" y2="1273.4" xlink:href="#linear-gradient-11"/><linearGradient id="linear-gradient-15" x1="49.37" y1="1267.02" x2="52.07" y2="1269.72" xlink:href="#linear-gradient-11"/><linearGradient id="linear-gradient-16" x1="56.2" y1="1271.34" x2="58.89" y2="1274.05" xlink:href="#linear-gradient-11"/><linearGradient id="linear-gradient-17" x1="70.32" y1="1272.94" x2="75.82" y2="1278.44" xlink:href="#linear-gradient-11"/><linearGradient id="linear-gradient-18" x1="62.98" y1="1273.37" x2="66.74" y2="1277.13" xlink:href="#linear-gradient-11"/><linearGradient id="linear-gradient-19" x1="68.54" y1="1270.16" x2="71.24" y2="1272.86" xlink:href="#linear-gradient-11"/><linearGradient id="linear-gradient-20" x1="76.2" y1="1274.14" x2="78.9" y2="1276.84" xlink:href="#linear-gradient-11"/></defs><g id="Layer_2" data-name="Layer 2"><g id="Layer_1-2" data-name="Layer 1"><ellipse class="cls-1" cx="51.5" cy="48.5" rx="51" ry="48"/><g id="Layer_2-2" data-name="Layer 2"><g id="Layer_1-2-2" data-name="Layer 1-2"><path class="cls-2" d="M70.14,74.2h0A1.77,1.77,0,0,1,69,72a80.56,80.56,0,0,0,0-47.09,1.77,1.77,0,0,1,1.07-2.19h0a3.32,3.32,0,0,0,2-4.19,3.22,3.22,0,0,0-4.1-2.09,73.58,73.58,0,0,1-21.68,3,73.63,73.63,0,0,1-21.68-3,3.2,3.2,0,0,0-4.07,2.07,3.3,3.3,0,0,0,2,4.16h0a1.76,1.76,0,0,1,1.07,2.18,80.56,80.56,0,0,0,0,47.09,1.77,1.77,0,0,1-1.06,2.23h0a3.3,3.3,0,0,0-2,4.16,3.19,3.19,0,0,0,4.07,2.07h0a73.52,73.52,0,0,1,21.68-3,73.57,73.57,0,0,1,21.68,3,3.2,3.2,0,0,0,4.07-2.07,3.3,3.3,0,0,0-2-4.16Z"/><path class="cls-3" d="M69,24.88a1.77,1.77,0,0,1,1.07-2.19h0a3.3,3.3,0,0,0,2-4.17,3.2,3.2,0,0,0-4.08-2.07,73.58,73.58,0,0,1-21.68,3h-.12v58h.12a73.52,73.52,0,0,1,21.68,3,3.19,3.19,0,0,0,4.07-2.07,3.3,3.3,0,0,0-2-4.16h0A1.77,1.77,0,0,1,69,72,81.44,81.44,0,0,0,69,24.88Z"/><path class="cls-4" d="M72.36,53.93H20.46A81.64,81.64,0,0,0,23.79,72a1.76,1.76,0,0,1-1.06,2.18h0a3.3,3.3,0,0,0-2,4.16,3.19,3.19,0,0,0,4.07,2.07h0a73.52,73.52,0,0,1,21.68-3,73.57,73.57,0,0,1,21.68,3,3.2,3.2,0,0,0,4.07-2.07,3.3,3.3,0,0,0-2-4.16h0A1.77,1.77,0,0,1,69,72a81,81,0,0,0,3.33-18.07Z"/><path class="cls-5" d="M40.07,28.77a1,1,0,0,1,1-1h1.15a1,1,0,0,1,0,2.05H41.08a1,1,0,0,1-1-1Z"/><path class="cls-6" d="M37.55,29.79H26.49a1,1,0,0,1-.93-1.11,1,1,0,0,1,.93-.94H37.55a1,1,0,0,1,0,2.05Z"/><path class="cls-7" d="M32.51,33.5h-6a1,1,0,0,1,0-2.05h6a1,1,0,0,1,.16,2.05Z"/><path class="cls-8" d="M32.51,72.07h-6a1,1,0,0,1,0-2h6a1,1,0,0,1,.16,2A.43.43,0,0,1,32.51,72.07Z"/><path class="cls-9" d="M31.05,40.28H62.89a1.45,1.45,0,0,0,1.42-1.48,1.5,1.5,0,0,0-.58-1.16,28.23,28.23,0,0,0-33.52,0,1.49,1.49,0,0,0-.29,2A1.39,1.39,0,0,0,31.05,40.28Z"/><path class="cls-10" d="M62.89,56.88H31.05a1.47,1.47,0,0,0-.84,2.65,28.2,28.2,0,0,0,33.52,0,1.48,1.48,0,0,0,.32-2A1.43,1.43,0,0,0,62.89,56.88Z"/><path class="cls-11" d="M43.7,65.83,36.16,77.49a2.12,2.12,0,0,0,.58,2.89,2,2,0,0,0,1.12.35H71a2.07,2.07,0,0,0,2-2.09,2.12,2.12,0,0,0-.34-1.15L65.14,65.83a12.69,12.69,0,0,0-17.81-3.74,13,13,0,0,0-3.65,3.74Z"/><path class="cls-12" d="M58.65,77.44l-.72,1.11a1.42,1.42,0,0,0,.39,1.94,1.36,1.36,0,0,0,.75.24H81.36a1.39,1.39,0,0,0,1.37-1.4,1.42,1.42,0,0,0-.23-.78l-.72-1.11a13.67,13.67,0,0,0-19.19-4A14,14,0,0,0,58.65,77.44Z"/><ellipse class="cls-13" cx="53.19" cy="64.26" rx="1.76" ry="1.8"/><ellipse class="cls-14" cx="49.48" cy="76.49" rx="1.76" ry="1.8"/><ellipse class="cls-15" cx="57.57" cy="67.04" rx="1.2" ry="1.23"/><ellipse class="cls-16" cx="42.98" cy="72.93" rx="1.2" ry="1.23"/><ellipse class="cls-17" cx="50.9" cy="69.93" rx="0.87" ry="0.89"/><ellipse class="cls-18" cx="57.75" cy="74.28" rx="0.87" ry="0.89"/><ellipse class="cls-19" cx="72.93" cy="76.93" rx="1.76" ry="1.8"/><ellipse class="cls-20" cx="64.94" cy="76.71" rx="1.2" ry="1.23"/><ellipse class="cls-21" cx="70.12" cy="73.12" rx="0.87" ry="0.89"/><ellipse class="cls-22" cx="77.8" cy="77.12" rx="0.87" ry="0.89"/><text class="cls-23" transform="translate(30.27 51.04) scale(0.98 1)">CEMENT</text></g></g></g></g></svg>