<svg xmlns="http://www.w3.org/2000/svg" viewBox="0 0 126.25 112.51"><defs><style>.cls-1{fill:#fff;}.cls-2{fill:#acd4f7;}.cls-3{opacity:0.13;}.cls-4{fill:none;stroke:#000;stroke-miterlimit:10;stroke-width:1.5px;}</style></defs><g id="Layer_2" data-name="Layer 2"><g id="Layer_1-2" data-name="Layer 1"><rect class="cls-1" x="0.87" y="11.3" width="124.51" height="100.34"/><path d="M125.38,112.51H.87a.87.87,0,0,1-.87-.87V11.3a.87.87,0,0,1,.87-.87H125.38a.87.87,0,0,1,.87.87V111.64A.87.87,0,0,1,125.38,112.51ZM1.74,110.77H124.51V12.17H1.74Z"/><rect class="cls-2" x="0.87" y="0.87" width="124.51" height="16.82"/><path d="M125.38,18.56H.87A.87.87,0,0,1,0,17.69V.87A.87.87,0,0,1,.87,0H125.38a.87.87,0,0,1,.87.87V17.69A.87.87,0,0,1,125.38,18.56ZM1.74,16.82H124.51V1.74H1.74Z"/><g class="cls-3"><path d="M122.82,18c-2.87,0-5.74-.19-8.6-.31-10.62-.45-21.24.09-31.85-.35-6.05-.35-12.11-.42-18.17-.25-8.33-.1-16.66-.11-25-.33-5.54-.27-11.06.34-16.6.35-5.44.25-10.91-.08-16.33.48-1.47.16-2.93.36-4.38.61a2.41,2.41,0,0,0,1.28,4.65,48.07,48.07,0,0,1,6.55-.6c3.78,0,7.56.14,11.34,0,4.6,0,9.18-.3,13.78-.4,4,0,8.09.17,12.13.19,5.9,0,11.79.11,17.69.11,3.41,0,6.81-.28,10.23-.2,9.06.31,18.13.57,27.2.44,5.24,0,10.48.13,15.71.33,1.37,0,2.74.09,4.12.06a3.22,3.22,0,0,0,2.58-.71A2.41,2.41,0,0,0,122.82,18Z"/></g><line class="cls-4" x1="1.74" y1="32.88" x2="124.51" y2="32.88"/><line class="cls-4" x1="1.74" y1="48.36" x2="124.51" y2="48.36"/><line class="cls-4" x1="1.74" y1="63.84" x2="124.51" y2="63.84"/><line class="cls-4" x1="1.74" y1="79.32" x2="124.51" y2="79.32"/><line class="cls-4" x1="1.74" y1="94.8" x2="124.51" y2="94.8"/><line class="cls-4" x1="35.51" y1="32.88" x2="35.51" y2="110.77"/><line class="cls-4" x1="84.47" y1="17.4" x2="84.47" y2="110.77"/><line class="cls-4" x1="10.31" y1="24.96" x2="46.49" y2="24.96"/><line class="cls-4" x1="22.6" y1="9.43" x2="99.92" y2="9.43"/><line class="cls-4" x1="58.55" y1="24.96" x2="76.88" y2="24.96"/><line class="cls-4" x1="95.49" y1="27.12" x2="116.87" y2="27.12"/><line class="cls-4" x1="42.49" y1="42.48" x2="51.35" y2="42.48"/><line class="cls-4" x1="95.49" y1="42.48" x2="104.36" y2="42.48"/><line class="cls-4" x1="108.11" y1="42.48" x2="116.98" y2="42.48"/><line class="cls-4" x1="95.49" y1="57.08" x2="104.36" y2="57.08"/><line class="cls-4" x1="108.11" y1="57.08" x2="116.98" y2="57.08"/><line class="cls-4" x1="95.49" y1="71.83" x2="104.36" y2="71.83"/><line class="cls-4" x1="108.11" y1="71.83" x2="116.98" y2="71.83"/><line class="cls-4" x1="95.49" y1="86.93" x2="104.36" y2="86.93"/><line class="cls-4" x1="108.11" y1="86.93" x2="116.98" y2="86.93"/><line class="cls-4" x1="95.49" y1="102.66" x2="104.36" y2="102.66"/><line class="cls-4" x1="108.11" y1="102.66" x2="116.98" y2="102.66"/><line class="cls-4" x1="61.26" y1="42.48" x2="76.14" y2="42.48"/><line class="cls-4" x1="10.31" y1="42.48" x2="19.67" y2="42.48"/><line class="cls-4" x1="42.49" y1="57.08" x2="51.35" y2="57.08"/><line class="cls-4" x1="61.26" y1="57.08" x2="80.1" y2="57.08"/><line class="cls-4" x1="10.31" y1="57.08" x2="19.67" y2="57.08"/><line class="cls-4" x1="42.49" y1="71.58" x2="51.35" y2="71.58"/><line class="cls-4" x1="61.26" y1="71.58" x2="69.61" y2="71.58"/><line class="cls-4" x1="10.31" y1="71.58" x2="19.67" y2="71.58"/><line class="cls-4" x1="42.49" y1="86.93" x2="51.35" y2="86.93"/><line class="cls-4" x1="61.26" y1="86.93" x2="67.72" y2="86.93"/><line class="cls-4" x1="10.31" y1="86.93" x2="19.67" y2="86.93"/><line class="cls-4" x1="42.49" y1="102.66" x2="51.35" y2="102.66"/><line class="cls-4" x1="61.26" y1="102.66" x2="76.14" y2="102.66"/><line class="cls-4" x1="10.31" y1="102.66" x2="19.67" y2="102.66"/></g></g></svg>