<svg xmlns="http://www.w3.org/2000/svg" viewBox="0 0 103 97"><defs><style>.cls-1,.cls-5{fill:none;stroke-miterlimit:10;}.cls-1{stroke:#d9d9d9;}.cls-2{fill:#e3e6ff;}.cls-3{fill:#c1c1ff;}.cls-4{opacity:0.13;}.cls-5{stroke:#2e304f;stroke-width:0.75px;}</style></defs><g id="Layer_2" data-name="Layer 2"><g id="Layer_1_copy" data-name="Layer 1 copy"><ellipse class="cls-1" cx="51.5" cy="48.5" rx="51" ry="48"/><rect class="cls-2" x="18.91" y="24.83" width="65.57" height="52.84"/><rect class="cls-3" x="18.91" y="19.33" width="65.57" height="8.86"/><g class="cls-4"><path d="M83.13,28.35c-1.51,0-3-.1-4.53-.16C73,28,67.42,28.24,61.83,28c-3.18-.19-6.37-.22-9.57-.13-4.38-.06-8.77-.06-13.16-.18-2.92-.14-5.83.18-8.74.19s-5.75-.05-8.6.25c-.78.08-1.55.19-2.31.32a1.27,1.27,0,1,0,.68,2.45,24.86,24.86,0,0,1,3.44-.32c2,0,4,.08,6,0,2.42,0,4.83-.16,7.25-.21,2.11,0,4.26.09,6.39.1,3.11,0,6.21.06,9.32.06,1.79,0,3.58-.15,5.38-.11,4.77.17,9.55.3,14.33.24q4.14,0,8.27.17c.72,0,1.44.05,2.17,0A1.71,1.71,0,0,0,84,30.5a1.28,1.28,0,0,0-.89-2.15Z"/></g><line class="cls-5" x1="19.37" y1="36.19" x2="84.02" y2="36.19"/><line class="cls-5" x1="19.37" y1="44.34" x2="84.02" y2="44.34"/><line class="cls-5" x1="19.37" y1="52.49" x2="84.02" y2="52.49"/><line class="cls-5" x1="19.37" y1="60.65" x2="84.02" y2="60.65"/><line class="cls-5" x1="19.37" y1="68.8" x2="84.02" y2="68.8"/><line class="cls-5" x1="37.16" y1="36.19" x2="37.16" y2="77.21"/><line class="cls-5" x1="62.94" y1="28.04" x2="62.94" y2="77.21"/><line class="cls-5" x1="23.89" y1="32.02" x2="42.94" y2="32.02"/><line class="cls-5" x1="30.36" y1="23.84" x2="71.07" y2="23.84"/><line class="cls-5" x1="49.29" y1="32.02" x2="58.94" y2="32.02"/><line class="cls-5" x1="68.74" y1="33.16" x2="80" y2="33.16"/><line class="cls-5" x1="40.83" y1="41.25" x2="45.5" y2="41.25"/><line class="cls-5" x1="68.74" y1="41.25" x2="73.41" y2="41.25"/><line class="cls-5" x1="75.39" y1="41.25" x2="80.06" y2="41.25"/><line class="cls-5" x1="68.74" y1="48.93" x2="73.41" y2="48.93"/><line class="cls-5" x1="75.39" y1="48.93" x2="80.06" y2="48.93"/><line class="cls-5" x1="68.74" y1="56.7" x2="73.41" y2="56.7"/><line class="cls-5" x1="75.39" y1="56.7" x2="80.06" y2="56.7"/><line class="cls-5" x1="68.74" y1="64.65" x2="73.41" y2="64.65"/><line class="cls-5" x1="75.39" y1="64.65" x2="80.06" y2="64.65"/><line class="cls-5" x1="68.74" y1="72.94" x2="73.41" y2="72.94"/><line class="cls-5" x1="75.39" y1="72.94" x2="80.06" y2="72.94"/><line class="cls-5" x1="50.72" y1="41.25" x2="58.55" y2="41.25"/><line class="cls-5" x1="23.89" y1="41.25" x2="28.81" y2="41.25"/><line class="cls-5" x1="40.83" y1="48.93" x2="45.5" y2="48.93"/><line class="cls-5" x1="50.72" y1="48.93" x2="60.64" y2="48.93"/><line class="cls-5" x1="23.89" y1="48.93" x2="28.81" y2="48.93"/><line class="cls-5" x1="40.83" y1="56.57" x2="45.5" y2="56.57"/><line class="cls-5" x1="50.72" y1="56.57" x2="55.11" y2="56.57"/><line class="cls-5" x1="23.89" y1="56.57" x2="28.81" y2="56.57"/><line class="cls-5" x1="40.83" y1="64.65" x2="45.5" y2="64.65"/><line class="cls-5" x1="50.72" y1="64.65" x2="54.12" y2="64.65"/><line class="cls-5" x1="23.89" y1="64.65" x2="28.81" y2="64.65"/><line class="cls-5" x1="40.83" y1="72.94" x2="45.5" y2="72.94"/><line class="cls-5" x1="50.72" y1="72.94" x2="58.55" y2="72.94"/><line class="cls-5" x1="23.89" y1="72.94" x2="28.81" y2="72.94"/></g></g></svg>