<svg xmlns="http://www.w3.org/2000/svg" viewBox="0 0 103 97"><defs><style>.cls-1,.cls-8{fill:none;stroke-miterlimit:10;}.cls-1{stroke:#d9d9d9;}.cls-2{fill:#8e969b;}.cls-3{fill:#778084;}.cls-4{fill:#d6e4e8;}.cls-5{fill:#f8c460;}.cls-6{fill:#faaf42;}.cls-7{fill:#fff;}.cls-8{stroke:#8e969b;stroke-width:0.5px;}.cls-9{isolation:isolate;font-size:2.01px;font-family:Roboto-Bold, Roboto;font-weight:700;}</style></defs><g id="Layer_2" data-name="Layer 2"><g id="Layer_1-2" data-name="Layer 1"><ellipse class="cls-1" cx="51.5" cy="48.5" rx="51" ry="48"/><g id="Layer_2-2" data-name="Layer 2"><g id="Layer_1-2-2" data-name="Layer 1-2"><rect class="cls-2" x="25.14" y="15.27" width="52.72" height="68.76" rx="2.29"/><rect class="cls-3" x="28.96" y="17.56" width="43.55" height="64.18" rx="2.03"/><rect class="cls-4" x="30.49" y="15.27" width="43.55" height="64.18" rx="2.29"/><rect class="cls-5" x="38.89" y="12.97" width="25.21" height="6.88" rx="2.29"/><path class="cls-6" d="M44.62,16.41a2.29,2.29,0,0,1-2.29-2.29V13H41.19a2.3,2.3,0,0,0-2.3,2.3v2.29a2.3,2.3,0,0,0,2.3,2.29H61.81a2.3,2.3,0,0,0,2.3-2.29V16.41Z"/><path class="cls-7" d="M61.81,15.84H59.52a.58.58,0,0,1,0-1.15h2.29a.58.58,0,1,1,0,1.15Z"/><line class="cls-8" x1="32.52" y1="54.13" x2="70.48" y2="54.13"/><line class="cls-8" x1="32.52" y1="47.15" x2="70.48" y2="47.15"/><line class="cls-8" x1="32.52" y1="40.17" x2="70.48" y2="40.17"/><line class="cls-8" x1="32.52" y1="33.2" x2="70.48" y2="33.2"/><line class="cls-8" x1="32.52" y1="26.22" x2="70.48" y2="26.22"/><line class="cls-8" x1="32.52" y1="60.9" x2="70.48" y2="60.9"/><line class="cls-8" x1="32.52" y1="67.68" x2="70.48" y2="67.68"/><line class="cls-8" x1="32.52" y1="74.45" x2="70.48" y2="74.45"/><text class="cls-9" transform="translate(33.78 24.98)">Date -</text><text class="cls-9" transform="translate(33.78 31.86)">Project -</text><text class="cls-9" transform="translate(33.78 38.74)">Building -</text><text class="cls-9" transform="translate(33.78 45.61)">Structure -</text><text class="cls-9" transform="translate(33.78 52.49)">Cement Brand -</text><text class="cls-9" transform="translate(33.78 59.36)">Cement C/C kg/M3-</text><text class="cls-9" transform="translate(33.78 66.24)">S.Plasticizer Brand -</text><text class="cls-9" transform="translate(33.78 73.12)">S.Plasticizer Dosage %/M3 -</text></g></g></g></g></svg>