<svg xmlns="http://www.w3.org/2000/svg" xmlns:xlink="http://www.w3.org/1999/xlink" viewBox="0 0 103 97"><defs><style>.cls-1{fill:none;stroke:#d9d9d9;stroke-miterlimit:10;}.cls-2{fill:#b5b8dd;}.cls-3{fill:url(#linear-gradient);}.cls-4{fill:url(#linear-gradient-2);}.cls-5{fill:url(#linear-gradient-3);}.cls-6{fill:url(#linear-gradient-4);}.cls-7{fill:url(#linear-gradient-5);}.cls-8{fill:url(#linear-gradient-6);}.cls-9{fill:url(#linear-gradient-7);}.cls-10{fill:url(#linear-gradient-8);}.cls-11{fill:url(#linear-gradient-9);}.cls-12{fill:url(#linear-gradient-10);}.cls-13{opacity:0.56;}.cls-14{fill:#a0826f;}.cls-15{isolation:isolate;font-size:7.63px;fill:#010101;font-family:Montserrat-Bold, Montserrat;font-weight:700;}</style><linearGradient id="linear-gradient" x1="54.22" y1="1245.03" x2="68.91" y2="1247.05" gradientTransform="translate(1.42 -1198.37)" gradientUnits="userSpaceOnUse"><stop offset="0" stop-color="#565a90" stop-opacity="0"/><stop offset="1" stop-color="#565a90"/></linearGradient><linearGradient id="linear-gradient-2" x1="44.68" y1="1269" x2="44.68" y2="1275.59" xlink:href="#linear-gradient"/><linearGradient id="linear-gradient-3" x1="33.23" y1="1206.27" x2="42.08" y2="1233.82" gradientTransform="translate(1.42 -1198.37)" gradientUnits="userSpaceOnUse"><stop offset="0" stop-color="#2e304f" stop-opacity="0"/><stop offset="1" stop-color="#2e304f" stop-opacity="0.96"/></linearGradient><linearGradient id="linear-gradient-4" x1="24.75" y1="1209.36" x2="33.48" y2="1236.52" xlink:href="#linear-gradient-3"/><linearGradient id="linear-gradient-5" x1="21.49" y1="1210.39" x2="30.26" y2="1237.67" xlink:href="#linear-gradient-3"/><linearGradient id="linear-gradient-6" x1="18.49" y1="1239.6" x2="27.25" y2="1266.87" xlink:href="#linear-gradient-3"/><linearGradient id="linear-gradient-7" x1="38.58" y1="1230.91" x2="73.81" y2="1264.12" gradientTransform="translate(1.42 -1198.37)" gradientUnits="userSpaceOnUse"><stop offset="0" stop-color="#939598"/><stop offset="0.17" stop-color="#76777a"/><stop offset="0.36" stop-color="#5f5f61"/><stop offset="0.55" stop-color="#4e4e50"/><stop offset="0.76" stop-color="#444345"/><stop offset="1" stop-color="#414042"/></linearGradient><linearGradient id="linear-gradient-8" x1="29.13" y1="1241.53" x2="64.36" y2="1274.75" xlink:href="#linear-gradient-7"/><linearGradient id="linear-gradient-9" x1="36.37" y1="889.94" x2="73.15" y2="889.94" gradientTransform="matrix(1, 0, 0, -1, 0, 960.26)" gradientUnits="userSpaceOnUse"><stop offset="0" stop-color="#b09082"/><stop offset="0.77" stop-color="#76503d"/><stop offset="1" stop-color="#673d38"/></linearGradient><linearGradient id="linear-gradient-10" x1="58" y1="884.36" x2="82.73" y2="884.36" xlink:href="#linear-gradient-9"/></defs><g id="Layer_2" data-name="Layer 2"><g id="Layer_1-2" data-name="Layer 1"><ellipse class="cls-1" cx="51.5" cy="48.5" rx="51" ry="48"/><g id="Layer_2-2" data-name="Layer 2"><g id="Layer_1-2-2" data-name="Layer 1-2"><path class="cls-2" d="M69.55,74.2h0A1.78,1.78,0,0,1,68.45,72a81.39,81.39,0,0,0,0-47.09,1.78,1.78,0,0,1,1.07-2.19h0a3.34,3.34,0,0,0,2-4.19,3.18,3.18,0,0,0-4-2.09,72,72,0,0,1-21.43,3,71.9,71.9,0,0,1-21.42-3,3.16,3.16,0,0,0-4,2.07,3.32,3.32,0,0,0,2,4.16h0a1.78,1.78,0,0,1,1.06,2.18,81.39,81.39,0,0,0,0,47.09,1.78,1.78,0,0,1-1.05,2.23h0a3.31,3.31,0,0,0-2,4.16,3.16,3.16,0,0,0,4,2.07h0a71.79,71.79,0,0,1,21.42-3,71.79,71.79,0,0,1,21.42,3,3.16,3.16,0,0,0,4-2.07,3.31,3.31,0,0,0-2-4.16Z"/><path class="cls-3" d="M68.45,24.88a1.78,1.78,0,0,1,1.07-2.19h0a3.31,3.31,0,0,0,2-4.17,3.16,3.16,0,0,0-4-2.07,72,72,0,0,1-21.43,3H46v58h.12a71.91,71.91,0,0,1,21.43,3,3.15,3.15,0,0,0,4-2.07,3.31,3.31,0,0,0-2-4.16h0A1.78,1.78,0,0,1,68.45,72,82.29,82.29,0,0,0,68.45,24.88Z"/><path class="cls-4" d="M71.74,53.93H20.46A82.16,82.16,0,0,0,23.75,72a1.77,1.77,0,0,1-1.05,2.18h0a3.31,3.31,0,0,0-2,4.16,3.16,3.16,0,0,0,4,2.07h0a71.79,71.79,0,0,1,21.42-3,71.79,71.79,0,0,1,21.42,3,3.16,3.16,0,0,0,4-2.07,3.31,3.31,0,0,0-2-4.16h0A1.78,1.78,0,0,1,68.46,72a82.05,82.05,0,0,0,3.29-18.07Z"/><path class="cls-5" d="M39.83,28.77a1,1,0,0,1,1-1H42a1,1,0,0,1,0,2.05H40.83a1,1,0,0,1-1-1Z"/><path class="cls-6" d="M37.35,29.79H26.42a1,1,0,0,1-.92-1.11,1,1,0,0,1,.92-.94H37.35a1,1,0,0,1,0,2.05Z"/><path class="cls-7" d="M32.37,33.5H26.44a1,1,0,0,1,0-2.05h5.93a1,1,0,0,1,1.07.94,1,1,0,0,1-.92,1.11Z"/><path class="cls-8" d="M32.37,72.07H26.44a1,1,0,0,1,0-2h5.93a1,1,0,0,1,1.07,1,1,1,0,0,1-.92,1.1A.38.38,0,0,1,32.37,72.07Z"/><path class="cls-9" d="M30.92,40.28H62.39a1.44,1.44,0,0,0,1.4-1.48,1.52,1.52,0,0,0-.57-1.16,27.63,27.63,0,0,0-33.12,0,1.49,1.49,0,0,0-.29,2A1.36,1.36,0,0,0,30.92,40.28Z"/><path class="cls-10" d="M62.39,56.88H30.92a1.44,1.44,0,0,0-1.41,1.47,1.46,1.46,0,0,0,.59,1.18,27.6,27.6,0,0,0,33.12,0,1.5,1.5,0,0,0,.32-2A1.42,1.42,0,0,0,62.39,56.88Z"/><path class="cls-11" d="M44.15,65.83,36.71,77.49a2.12,2.12,0,0,0,.57,2.89,1.92,1.92,0,0,0,1.11.35H71.14a2.05,2.05,0,0,0,2-2.09,2.11,2.11,0,0,0-.33-1.15L65.37,65.83A12.46,12.46,0,0,0,47.76,62.1,13,13,0,0,0,44.15,65.83Z"/><path class="cls-12" d="M58.93,77.44l-.71,1.11a1.43,1.43,0,0,0,.39,1.94,1.33,1.33,0,0,0,.74.24h22a1.38,1.38,0,0,0,1.36-1.4,1.42,1.42,0,0,0-.23-.78l-.71-1.11a13.41,13.41,0,0,0-19-4A14,14,0,0,0,58.93,77.44Z"/><g class="cls-13"><ellipse class="cls-14" cx="53.53" cy="64.26" rx="1.74" ry="1.8"/><ellipse class="cls-14" cx="49.88" cy="76.49" rx="1.74" ry="1.8"/><ellipse class="cls-14" cx="57.86" cy="67.04" rx="1.19" ry="1.23"/><ellipse class="cls-14" cx="43.44" cy="72.93" rx="1.19" ry="1.23"/><ellipse class="cls-14" cx="51.27" cy="69.93" rx="0.86" ry="0.89"/><ellipse class="cls-14" cx="58.05" cy="74.28" rx="0.86" ry="0.89"/></g><g class="cls-13"><ellipse class="cls-14" cx="73.04" cy="76.93" rx="1.74" ry="1.8"/><ellipse class="cls-14" cx="65.15" cy="76.71" rx="1.19" ry="1.23"/><ellipse class="cls-14" cx="70.27" cy="73.12" rx="0.86" ry="0.89"/><ellipse class="cls-14" cx="77.86" cy="77.12" rx="0.86" ry="0.89"/></g><text class="cls-15" transform="translate(31.97 50.72) scale(0.97 1)">FLYASH</text></g></g></g></g></svg>