<svg xmlns="http://www.w3.org/2000/svg" xmlns:xlink="http://www.w3.org/1999/xlink" viewBox="0 0 52 40.97"><defs><style>.cls-1,.cls-9{fill:none;stroke-miterlimit:10;}.cls-1{stroke:#d9d9d9;}.cls-2{fill:url(#linear-gradient);}.cls-3{fill:url(#linear-gradient-2);}.cls-4{fill:#2e304f;}.cls-5{fill:#d7d7ff;}.cls-6{fill:#c1c1ff;}.cls-7,.cls-8{isolation:isolate;font-family:Roboto-Bold, Roboto;font-weight:700;}.cls-7{font-size:2.69px;}.cls-8{font-size:3.06px;}.cls-9{stroke:#2e304f;stroke-linecap:square;stroke-width:0.75px;}</style><linearGradient id="linear-gradient" x1="26" y1="37.01" x2="26" y2="3.96" gradientUnits="userSpaceOnUse"><stop offset="0" stop-color="#36385c"/><stop offset="0.92" stop-color="#a2a7e2"/></linearGradient><linearGradient id="linear-gradient-2" x1="13.38" y1="4.18" x2="13.38" y2="36.81" gradientUnits="userSpaceOnUse"><stop offset="0" stop-color="#d5d8ff"/><stop offset="0.92" stop-color="#8f98fb"/></linearGradient></defs><g id="Layer_2" data-name="Layer 2"><g id="Icon_Set" data-name="Icon Set"><rect class="cls-1" x="0.5" y="0.5" width="51" height="39.97" rx="5"/><path class="cls-2" d="M38.58,29.39V11.58A7.7,7.7,0,0,1,39.45,8L40.72,5.6a1,1,0,0,0-1.31-1.31h0a7.61,7.61,0,0,1-5.52.62,33.5,33.5,0,0,0-15.77,0,7.57,7.57,0,0,1-5.52-.62A1,1,0,0,0,11.28,5.6c1.3,2.47,2.14,3.7,2.14,6V29.39A7.74,7.74,0,0,1,12.55,33l-1.27,2.42a1,1,0,0,0,1.31,1.31h0a7.61,7.61,0,0,1,5.52-.62,33.37,33.37,0,0,0,15.77,0,7.62,7.62,0,0,1,5.52.62,1,1,0,0,0,1.31-1.31c-1.3-2.47-2.14-3.71-2.14-6Z"/><path class="cls-3" d="M15.61,11.58V29.4c0,2.26-.84,3.48-2.15,6a1,1,0,0,0,0,.92,6.79,6.79,0,0,0-.87.39h0a1,1,0,0,1-1.31-1.31c1.3-2.48,2.14-3.71,2.14-6V11.58c0-2.26-.84-3.48-2.14-6a1,1,0,0,1,.86-1.42,1,1,0,0,1,.46.11,5.75,5.75,0,0,0,.88.39.94.94,0,0,0,0,.92c1.29,2.49,2.14,3.71,2.14,6Z"/><path class="cls-4" d="M40.72,35.37a1,1,0,0,1-.86,1.43,1.05,1.05,0,0,1-.46-.12,6.92,6.92,0,0,0-.88-.39.94.94,0,0,0,0-.92c-1.3-2.48-2.14-3.71-2.14-6V11.58c0-2.26.84-3.48,2.14-6a.94.94,0,0,0,0-.92,6.21,6.21,0,0,0,.88-.39h0A1,1,0,0,1,40.71,5.6c-1.29,2.49-2.14,3.71-2.14,6V29.4c0,2.26.85,3.48,2.15,6Z"/><path class="cls-5" d="M34.31,9.24a.58.58,0,0,0,.82-.05.6.6,0,0,0-.06-.83l-.14-.11a.58.58,0,1,0-.74.9Z"/><path class="cls-5" d="M28.77,7.09a10.19,10.19,0,0,1,3.7,1,.6.6,0,0,0,.78-.28A.59.59,0,0,0,33,7a11.51,11.51,0,0,0-4.16-1.08.59.59,0,0,0,0,1.17Z"/><rect class="cls-6" x="18.03" y="12.63" width="16.03" height="14.81" rx="2"/><text class="cls-7" transform="translate(20.02 21.36) scale(1.08 1)">Concrete</text><text class="cls-8" transform="translate(22.85 18.18)">M70</text><line class="cls-9" x1="32.05" y1="23.38" x2="19.84" y2="23.38"/></g></g></svg>