<svg xmlns="http://www.w3.org/2000/svg" xmlns:xlink="http://www.w3.org/1999/xlink" viewBox="0 0 103 97"><defs><style>.cls-1{fill:none;stroke:#d9d9d9;stroke-miterlimit:10;}.cls-2{fill:#b5b8dd;}.cls-3{fill:url(#linear-gradient);}.cls-4{fill:url(#linear-gradient-2);}.cls-5{fill:url(#linear-gradient-3);}.cls-6{fill:url(#linear-gradient-4);}.cls-7{fill:url(#linear-gradient-5);}.cls-8{fill:url(#linear-gradient-6);}.cls-9{fill:url(#linear-gradient-7);}.cls-10{fill:url(#linear-gradient-8);}.cls-11{fill:url(#linear-gradient-9);}.cls-12{fill:url(#linear-gradient-10);}.cls-13{opacity:0.42;}.cls-14{fill:#59616d;}.cls-15,.cls-16{isolation:isolate;}.cls-16{font-size:6.56px;fill:#010101;font-family:Montserrat-Bold, Montserrat;font-weight:700;}</style><linearGradient id="linear-gradient" x1="54.03" y1="1245.07" x2="68.48" y2="1247.06" gradientTransform="translate(0.79 -1198.37)" gradientUnits="userSpaceOnUse"><stop offset="0" stop-color="#565a90" stop-opacity="0"/><stop offset="1" stop-color="#565a90"/></linearGradient><linearGradient id="linear-gradient-2" x1="44.74" y1="1269" x2="44.74" y2="1275.59" xlink:href="#linear-gradient"/><linearGradient id="linear-gradient-3" x1="33.42" y1="1206.37" x2="42.23" y2="1233.79" gradientTransform="translate(0.79 -1198.37)" gradientUnits="userSpaceOnUse"><stop offset="0" stop-color="#2e304f" stop-opacity="0"/><stop offset="1" stop-color="#2e304f" stop-opacity="0.96"/></linearGradient><linearGradient id="linear-gradient-4" x1="25.21" y1="1209.62" x2="33.81" y2="1236.38" xlink:href="#linear-gradient-3"/><linearGradient id="linear-gradient-5" x1="21.99" y1="1210.63" x2="30.66" y2="1237.6" xlink:href="#linear-gradient-3"/><linearGradient id="linear-gradient-6" x1="19.02" y1="1239.94" x2="27.68" y2="1266.9" xlink:href="#linear-gradient-3"/><linearGradient id="linear-gradient-7" x1="38.76" y1="1231.04" x2="73.24" y2="1263.56" gradientTransform="translate(0.79 -1198.37)" gradientUnits="userSpaceOnUse"><stop offset="0" stop-color="#939598"/><stop offset="0.17" stop-color="#76777a"/><stop offset="0.36" stop-color="#5f5f61"/><stop offset="0.55" stop-color="#4e4e50"/><stop offset="0.76" stop-color="#444345"/><stop offset="1" stop-color="#414042"/></linearGradient><linearGradient id="linear-gradient-8" x1="29.51" y1="1241.85" x2="64" y2="1274.37" xlink:href="#linear-gradient-7"/><linearGradient id="linear-gradient-9" x1="37.4" y1="879.55" x2="73.36" y2="879.55" gradientTransform="matrix(1, 0, 0, -1, 0, 949.88)" gradientUnits="userSpaceOnUse"><stop offset="0" stop-color="#616470"/><stop offset="0.77" stop-color="#1b1e26"/><stop offset="1" stop-color="#1d2028"/></linearGradient><linearGradient id="linear-gradient-10" x1="58.55" y1="873.98" x2="82.73" y2="873.98" xlink:href="#linear-gradient-9"/></defs><g id="Layer_2" data-name="Layer 2"><g id="Layer_1-2" data-name="Layer 1"><ellipse class="cls-1" cx="51.5" cy="48.5" rx="51" ry="48"/><g id="Layer_2-2" data-name="Layer 2"><g id="Layer_1-2-2" data-name="Layer 1-2"><path class="cls-2" d="M68.45,74.2h0a1.79,1.79,0,0,1-1-2.19,83.28,83.28,0,0,0,0-47.09,1.79,1.79,0,0,1,1-2.19h0a3.36,3.36,0,0,0,2-4.19,3.09,3.09,0,0,0-4-2.09,68.82,68.82,0,0,1-20.94,3,68.89,68.89,0,0,1-21-3,3.06,3.06,0,0,0-3.93,2.07,3.33,3.33,0,0,0,2,4.16h0a1.78,1.78,0,0,1,1,2.18,83.28,83.28,0,0,0,0,47.09,1.79,1.79,0,0,1-1,2.23h0a3.34,3.34,0,0,0-2,4.16,3.08,3.08,0,0,0,3.94,2.07h0a68.72,68.72,0,0,1,20.94-3,68.84,68.84,0,0,1,21,3,3.06,3.06,0,0,0,3.93-2.07,3.33,3.33,0,0,0-2-4.16Z"/><path class="cls-3" d="M67.38,24.88a1.79,1.79,0,0,1,1-2.19h0a3.34,3.34,0,0,0,2-4.17,3.09,3.09,0,0,0-4-2.07,68.82,68.82,0,0,1-20.94,3h-.12v58h.12a68.77,68.77,0,0,1,20.94,3,3.08,3.08,0,0,0,3.94-2.07,3.34,3.34,0,0,0-2-4.16h0a1.79,1.79,0,0,1-1-2.19A84.14,84.14,0,0,0,67.38,24.88Z"/><path class="cls-4" d="M70.59,53.93H20.45A85.08,85.08,0,0,0,23.67,72a1.78,1.78,0,0,1-1,2.18h0a3.34,3.34,0,0,0-2,4.16,3.08,3.08,0,0,0,3.94,2.07h0a68.72,68.72,0,0,1,20.94-3,68.84,68.84,0,0,1,21,3,3.06,3.06,0,0,0,3.93-2.07,3.33,3.33,0,0,0-2-4.16h0a1.79,1.79,0,0,1-1-2.18A83.74,83.74,0,0,0,70.6,53.93Z"/><path class="cls-5" d="M39.4,28.77a1,1,0,0,1,1-1h1.11a1,1,0,0,1,0,2.05h-1.1a1,1,0,0,1-1-1Z"/><path class="cls-6" d="M37,29.79H26.28a1,1,0,0,1-.9-1.11,1,1,0,0,1,.9-.94H37a1,1,0,0,1,0,2.05Z"/><path class="cls-7" d="M32.1,33.5H26.3a1,1,0,0,1-.89-1.11,1,1,0,0,1,.89-.94h5.8a1,1,0,0,1,1,.94,1,1,0,0,1-.9,1.11Z"/><path class="cls-8" d="M32.1,72.07H26.3a1,1,0,0,1-.89-1.1,1,1,0,0,1,.89-1h5.8a1,1,0,0,1,.15,2A.38.38,0,0,1,32.1,72.07Z"/><path class="cls-9" d="M30.69,40.28H61.45a1.42,1.42,0,0,0,1.36-1.48,1.5,1.5,0,0,0-.55-1.16,26.53,26.53,0,0,0-32.38,0,1.52,1.52,0,0,0-.29,2A1.34,1.34,0,0,0,30.69,40.28Z"/><path class="cls-10" d="M61.45,56.88H30.69a1.43,1.43,0,0,0-1.39,1.47,1.48,1.48,0,0,0,.58,1.18,26.5,26.5,0,0,0,32.38,0,1.51,1.51,0,0,0,.31-2A1.37,1.37,0,0,0,61.45,56.88Z"/><path class="cls-11" d="M45,65.83,37.72,77.49a2.16,2.16,0,0,0,.56,2.89,1.86,1.86,0,0,0,1.09.35h32a2,2,0,0,0,2-2.09A2.19,2.19,0,0,0,73,77.49L65.75,65.83A12,12,0,0,0,48.54,62.1,12.58,12.58,0,0,0,45,65.83Z"/><path class="cls-12" d="M59.46,77.44l-.69,1.11a1.45,1.45,0,0,0,.37,1.94,1.32,1.32,0,0,0,.73.24H81.4a1.38,1.38,0,0,0,1.33-1.4,1.5,1.5,0,0,0-.22-.78l-.7-1.11a13,13,0,0,0-18.54-4A14,14,0,0,0,59.46,77.44Z"/><g class="cls-13"><ellipse class="cls-14" cx="54.18" cy="64.26" rx="1.7" ry="1.8"/><ellipse class="cls-14" cx="50.6" cy="76.49" rx="1.7" ry="1.8"/><ellipse class="cls-14" cx="58.41" cy="67.04" rx="1.16" ry="1.23"/><ellipse class="cls-14" cx="44.31" cy="72.93" rx="1.16" ry="1.23"/><ellipse class="cls-14" cx="51.97" cy="69.93" rx="0.84" ry="0.89"/><ellipse class="cls-14" cx="58.59" cy="74.28" rx="0.84" ry="0.89"/></g><g class="cls-13"><ellipse class="cls-14" cx="73.25" cy="76.93" rx="1.7" ry="1.8"/><ellipse class="cls-14" cx="65.53" cy="76.71" rx="1.16" ry="1.23"/><ellipse class="cls-14" cx="70.54" cy="73.12" rx="0.84" ry="0.89"/><ellipse class="cls-14" cx="77.96" cy="77.12" rx="0.84" ry="0.89"/></g><g class="cls-15"><text class="cls-16" transform="translate(33.47 47.19) scale(0.95 1)">MICRO-</text><text class="cls-16" transform="translate(35.69 55.06) scale(0.95 1)">SILICA</text></g></g></g></g></g></svg>