<svg xmlns="http://www.w3.org/2000/svg" viewBox="0 0 133.25 126.28"><defs><style>.cls-1{fill:#fff;}.cls-2{fill:#acd4f7;}</style></defs><g id="Layer_2" data-name="Layer 2"><g id="Layer_1-2" data-name="Layer 1"><rect class="cls-1" x="21.74" y="83.07" width="18.16" height="42.34"/><path d="M39.9,126.28H21.74a.87.87,0,0,1-.87-.87V83.07a.87.87,0,0,1,.87-.87H39.9a.87.87,0,0,1,.87.87v42.34A.87.87,0,0,1,39.9,126.28Zm-17.29-1.74H39V83.94H22.61Z"/><rect class="cls-1" x="51.87" y="51.75" width="18.16" height="73.66"/><path d="M70,126.28H51.87a.87.87,0,0,1-.87-.87V51.75a.87.87,0,0,1,.87-.87H70a.87.87,0,0,1,.87.87v73.66A.87.87,0,0,1,70,126.28Zm-17.29-1.74H69.16V52.62H52.74Z"/><rect class="cls-2" x="82.9" y="69.94" width="18.16" height="55.47"/><path d="M101.06,126.28H82.9a.87.87,0,0,1-.87-.87V69.94a.87.87,0,0,1,.87-.87h18.16a.87.87,0,0,1,.87.87v55.47A.87.87,0,0,1,101.06,126.28Zm-17.29-1.74h16.42V70.81H83.77Z"/><rect class="cls-1" x="114.22" y="39.57" width="18.16" height="85.84"/><path d="M132.38,126.28H114.22a.87.87,0,0,1-.87-.87V39.57a.87.87,0,0,1,.87-.87h18.16a.87.87,0,0,1,.87.87v85.84A.87.87,0,0,1,132.38,126.28Zm-17.29-1.74h16.42V40.44H115.09Z"/><path d="M.87,80.11a.9.9,0,0,1-.54-.18.86.86,0,0,1-.14-1.22l15-19.11a.87.87,0,0,1,1.2-.16l9.7,7.19L57.87,28.52A.86.86,0,0,1,59,28.35L87,46.51,128.22.29a.87.87,0,0,1,1.3,1.16L87.75,48.22a.87.87,0,0,1-1.13.15L58.71,30.23,26.89,68.37a.88.88,0,0,1-1.19.15L16,61.34,1.55,79.78A.85.85,0,0,1,.87,80.11Z"/></g></g></svg>