<svg xmlns="http://www.w3.org/2000/svg" viewBox="0 0 52 40.97"><defs><style>.cls-1,.cls-6{fill:none;stroke-miterlimit:10;}.cls-1{stroke:#d9d9d9;}.cls-2{fill:#a9ceea;}.cls-3{opacity:0.06;}.cls-4{fill:#9191e2;}.cls-5{fill:#646993;}.cls-6{stroke:#2e304f;stroke-linecap:round;stroke-width:0.75px;opacity:0.31;}.cls-7{fill:#c0dbf2;}</style></defs><g id="Layer_2" data-name="Layer 2"><g id="Layer_5" data-name="Layer 5"><rect class="cls-1" x="0.5" y="0.5" width="51" height="39.97" rx="5"/><path class="cls-2" d="M10.46,7.86Q9.08,14.67,7.83,21.75c-.36,2.06-.71,4.1-1,6.14.34,1.57.67,3.14,1,4.72a2.9,2.9,0,0,0-1.28,3.14,2.94,2.94,0,0,0,1.72,1.82c18.75.23,32.46.24,34.59,0a3,3,0,0,0,2-.94,2.23,2.23,0,0,0,.36-2.24,2.3,2.3,0,0,0-2.47-1.24l-1,.29q-.09-13-.19-26.09Z"/><path class="cls-3" d="M40.53,5.12a4.63,4.63,0,0,1,4,.53,2.09,2.09,0,0,1,.62.89l0,28.85a10.4,10.4,0,0,0-2.17-.53,10.2,10.2,0,0,0-2.52,0Z"/><path class="cls-3" d="M11.41,4.57a4.67,4.67,0,0,0-4,.53A2.16,2.16,0,0,0,6.74,6l0,28.86a10.4,10.4,0,0,1,2.17-.53,10.82,10.82,0,0,1,2.52,0Z"/><polygon class="cls-4" points="16.48 17.23 16.48 34.99 22.22 34.99 22.22 16.26 16.48 17.23"/><rect class="cls-5" x="22.22" y="20.77" width="3.78" height="14.22"/><rect class="cls-4" x="26" y="17.62" width="5.65" height="17.37"/><rect class="cls-5" x="26.47" y="15.68" width="4.67" height="1.94"/><polygon class="cls-5" points="31.65 20.15 35.39 21.55 35.39 34.99 31.65 34.99 31.65 20.15"/><line class="cls-6" x1="18.53" y1="19.14" x2="18.53" y2="20.95"/><line class="cls-6" x1="20.4" y1="19.14" x2="20.4" y2="20.95"/><line class="cls-6" x1="27.87" y1="19.14" x2="27.87" y2="20.95"/><line class="cls-6" x1="29.74" y1="19.14" x2="29.74" y2="20.95"/><line class="cls-6" x1="27.87" y1="22.36" x2="27.87" y2="24.17"/><line class="cls-6" x1="29.74" y1="22.36" x2="29.74" y2="24.17"/><line class="cls-6" x1="27.87" y1="25.4" x2="27.87" y2="27.21"/><line class="cls-6" x1="29.74" y1="25.4" x2="29.74" y2="27.21"/><line class="cls-6" x1="27.87" y1="28.44" x2="27.87" y2="30.25"/><line class="cls-6" x1="29.74" y1="28.44" x2="29.74" y2="30.25"/><line class="cls-6" x1="27.87" y1="31.48" x2="27.87" y2="33.29"/><line class="cls-6" x1="29.74" y1="31.48" x2="29.74" y2="33.29"/><line class="cls-6" x1="24.11" y1="22.36" x2="24.11" y2="24.17"/><line class="cls-6" x1="33.47" y1="22.36" x2="33.47" y2="24.17"/><line class="cls-6" x1="33.47" y1="25.4" x2="33.47" y2="27.21"/><line class="cls-6" x1="33.47" y1="28.44" x2="33.47" y2="30.25"/><line class="cls-6" x1="33.47" y1="31.48" x2="33.47" y2="33.29"/><line class="cls-6" x1="24.11" y1="25.4" x2="24.11" y2="27.21"/><line class="cls-6" x1="24.11" y1="28.44" x2="24.11" y2="30.25"/><line class="cls-6" x1="24.11" y1="31.48" x2="24.11" y2="33.29"/><line class="cls-6" x1="18.53" y1="22.36" x2="18.53" y2="24.17"/><line class="cls-6" x1="20.4" y1="22.36" x2="20.4" y2="24.17"/><line class="cls-6" x1="18.53" y1="25.4" x2="18.53" y2="27.21"/><line class="cls-6" x1="20.4" y1="25.4" x2="20.4" y2="27.21"/><line class="cls-6" x1="18.53" y1="28.44" x2="18.53" y2="30.25"/><line class="cls-6" x1="20.4" y1="28.44" x2="20.4" y2="30.25"/><line class="cls-6" x1="18.53" y1="31.48" x2="18.53" y2="33.29"/><line class="cls-6" x1="20.4" y1="31.48" x2="20.4" y2="33.29"/><line class="cls-6" x1="16.19" y1="9.56" x2="21.1" y2="9.56"/><line class="cls-6" x1="12.46" y1="9.56" x2="14.56" y2="9.56"/><line class="cls-6" x1="16.19" y1="11.43" x2="21.1" y2="11.43"/><line class="cls-6" x1="12.46" y1="11.43" x2="14.56" y2="11.43"/><line class="cls-6" x1="16.19" y1="13.3" x2="21.1" y2="13.3"/><line class="cls-6" x1="12.46" y1="13.3" x2="14.56" y2="13.3"/><path class="cls-7" d="M41.53,4.12a3,3,0,0,1,3.19.53,2.06,2.06,0,0,1,.49.89l0,28.85a6.94,6.94,0,0,0-1.71-.53,6.38,6.38,0,0,0-2,0Z"/><path class="cls-7" d="M10.41,3.57a3,3,0,0,0-3.19.53A2.24,2.24,0,0,0,6.73,5l0,28.86a6.9,6.9,0,0,1,1.72-.53,6.69,6.69,0,0,1,2,0Z"/></g></g></svg>