<svg xmlns="http://www.w3.org/2000/svg" xmlns:xlink="http://www.w3.org/1999/xlink" viewBox="0 0 103 97"><defs><style>.cls-1{fill:none;stroke:#d9d9d9;stroke-miterlimit:10;}.cls-2{fill:#b5b8dd;}.cls-3{fill:url(#linear-gradient);}.cls-4{fill:url(#linear-gradient-2);}.cls-5{fill:url(#linear-gradient-3);}.cls-6{fill:url(#linear-gradient-4);}.cls-7{fill:url(#linear-gradient-5);}.cls-8{fill:url(#linear-gradient-6);}.cls-9{fill:url(#linear-gradient-7);}.cls-10{fill:url(#linear-gradient-8);}.cls-11{fill:url(#linear-gradient-9);}.cls-12{fill:url(#linear-gradient-10);}.cls-13{fill:url(#linear-gradient-11);}.cls-14{fill:url(#linear-gradient-12);}.cls-15{fill:url(#linear-gradient-13);}.cls-16{fill:url(#linear-gradient-14);}.cls-17{fill:url(#linear-gradient-15);}.cls-18{fill:url(#linear-gradient-16);}.cls-19{fill:url(#linear-gradient-17);}.cls-20{fill:url(#linear-gradient-18);}.cls-21{fill:url(#linear-gradient-19);}.cls-22{fill:url(#linear-gradient-20);}.cls-23{fill:url(#linear-gradient-21);}.cls-24{fill:url(#linear-gradient-22);}.cls-25{fill:url(#linear-gradient-23);}.cls-26{isolation:isolate;font-size:9.41px;fill:#010101;font-family:Montserrat-Bold, Montserrat;font-weight:700;}</style><linearGradient id="linear-gradient" x1="54.34" y1="1244.98" x2="69.4" y2="1247.05" gradientTransform="translate(2.52 -1198.37)" gradientUnits="userSpaceOnUse"><stop offset="0" stop-color="#565a90" stop-opacity="0"/><stop offset="1" stop-color="#565a90"/></linearGradient><linearGradient id="linear-gradient-2" x1="44.45" y1="1269" x2="44.45" y2="1275.59" xlink:href="#linear-gradient"/><linearGradient id="linear-gradient-3" x1="32.79" y1="1206.12" x2="41.71" y2="1233.87" gradientTransform="translate(2.52 -1198.37)" gradientUnits="userSpaceOnUse"><stop offset="0" stop-color="#2e304f" stop-opacity="0"/><stop offset="1" stop-color="#2e304f" stop-opacity="0.96"/></linearGradient><linearGradient id="linear-gradient-4" x1="23.92" y1="1208.97" x2="32.83" y2="1236.72" xlink:href="#linear-gradient-3"/><linearGradient id="linear-gradient-5" x1="20.59" y1="1210.04" x2="29.51" y2="1237.79" xlink:href="#linear-gradient-3"/><linearGradient id="linear-gradient-6" x1="17.53" y1="1239.08" x2="26.44" y2="1266.83" xlink:href="#linear-gradient-3"/><linearGradient id="linear-gradient-7" x1="38.16" y1="1230.71" x2="74.51" y2="1264.98" gradientTransform="translate(2.52 -1198.37)" gradientUnits="userSpaceOnUse"><stop offset="0" stop-color="#939598"/><stop offset="0.17" stop-color="#76777a"/><stop offset="0.36" stop-color="#5f5f61"/><stop offset="0.55" stop-color="#4e4e50"/><stop offset="0.76" stop-color="#444345"/><stop offset="1" stop-color="#414042"/></linearGradient><linearGradient id="linear-gradient-8" x1="28.41" y1="1241.05" x2="64.76" y2="1275.33" xlink:href="#linear-gradient-7"/><linearGradient id="linear-gradient-9" x1="45.2" y1="1267.81" x2="54.61" y2="1281.93" gradientTransform="translate(2.52 -1198.37)" gradientUnits="userSpaceOnUse"><stop offset="0" stop-color="#9e9797"/><stop offset="1" stop-color="#776f6f"/></linearGradient><linearGradient id="linear-gradient-10" x1="49.6" y1="1269.73" x2="57.95" y2="1276.95" gradientTransform="translate(2.52 -1198.37)" gradientUnits="userSpaceOnUse"><stop offset="0" stop-color="#776f6f" stop-opacity="0"/><stop offset="0.35" stop-color="#696464" stop-opacity="0.35"/><stop offset="1" stop-color="#454545"/></linearGradient><linearGradient id="linear-gradient-11" x1="51.3" y1="1273.42" x2="51.3" y2="1279.38" gradientTransform="translate(2.52 -1198.37)" gradientUnits="userSpaceOnUse"><stop offset="0" stop-color="#776f6f" stop-opacity="0"/><stop offset="1" stop-color="#454545"/></linearGradient><linearGradient id="linear-gradient-12" x1="64.4" y1="1270.35" x2="67.79" y2="1278.57" xlink:href="#linear-gradient-9"/><linearGradient id="linear-gradient-13" x1="67.43" y1="1274.24" x2="67.43" y2="1278.44" xlink:href="#linear-gradient-11"/><linearGradient id="linear-gradient-14" x1="47.72" y1="1260.32" x2="53.28" y2="1265.88" xlink:href="#linear-gradient-10"/><linearGradient id="linear-gradient-15" x1="43.92" y1="1272.53" x2="49.48" y2="1278.09" xlink:href="#linear-gradient-10"/><linearGradient id="linear-gradient-16" x1="52.82" y1="1263.72" x2="56.62" y2="1267.52" xlink:href="#linear-gradient-10"/><linearGradient id="linear-gradient-17" x1="37.93" y1="1269.62" x2="41.73" y2="1273.43" xlink:href="#linear-gradient-10"/><linearGradient id="linear-gradient-18" x1="46.41" y1="1267.01" x2="49.14" y2="1269.74" xlink:href="#linear-gradient-10"/><linearGradient id="linear-gradient-19" x1="53.38" y1="1271.34" x2="56.11" y2="1274.07" xlink:href="#linear-gradient-10"/><linearGradient id="linear-gradient-20" x1="67.83" y1="1272.93" x2="73.38" y2="1278.48" xlink:href="#linear-gradient-10"/><linearGradient id="linear-gradient-21" x1="60.32" y1="1273.35" x2="64.12" y2="1277.16" xlink:href="#linear-gradient-10"/><linearGradient id="linear-gradient-22" x1="65.99" y1="1270.15" x2="68.72" y2="1272.88" xlink:href="#linear-gradient-10"/><linearGradient id="linear-gradient-23" x1="73.82" y1="1274.13" x2="76.55" y2="1276.86" xlink:href="#linear-gradient-10"/></defs><g id="Layer_2" data-name="Layer 2"><g id="Layer_1-2" data-name="Layer 1"><ellipse class="cls-1" cx="51.5" cy="48.5" rx="51" ry="48"/><g id="Layer_2-2" data-name="Layer 2"><g id="Layer_1-2-2" data-name="Layer 1-2"><path class="cls-2" d="M71.21,74.2h0A1.78,1.78,0,0,1,70.07,72a78.8,78.8,0,0,0,0-47.09,1.77,1.77,0,0,1,1.1-2.19h0a3.31,3.31,0,1,0-2.09-6.28,76.69,76.69,0,0,1-22.15,3,76.62,76.62,0,0,1-22.14-3,3.29,3.29,0,0,0-2.09,6.23h0a1.75,1.75,0,0,1,1.1,2.18,78.8,78.8,0,0,0,0,47.09,1.77,1.77,0,0,1-1.09,2.23h0a3.29,3.29,0,1,0,2.09,6.23h0A76.67,76.67,0,0,1,47,77.4a76.67,76.67,0,0,1,22.15,3,3.29,3.29,0,0,0,2.09-6.23Z"/><path class="cls-3" d="M70.07,24.88a1.77,1.77,0,0,1,1.1-2.19h0a3.29,3.29,0,1,0-2.09-6.24,76.69,76.69,0,0,1-22.15,3h-.12v58H47a76.62,76.62,0,0,1,22.15,3,3.29,3.29,0,0,0,2.09-6.23h0A1.78,1.78,0,0,1,70.07,72,79.64,79.64,0,0,0,70.07,24.88Z"/><path class="cls-4" d="M73.48,53.93h-53A80.08,80.08,0,0,0,23.87,72a1.76,1.76,0,0,1-1.09,2.18h0a3.29,3.29,0,1,0,2.09,6.23h0A76.67,76.67,0,0,1,47,77.4a76.67,76.67,0,0,1,22.15,3,3.29,3.29,0,0,0,2.09-6.23h0A1.76,1.76,0,0,1,70.08,72a79.41,79.41,0,0,0,3.4-18.07Z"/><path class="cls-5" d="M40.49,28.77a1,1,0,0,1,1-1h1.18a1,1,0,0,1,0,2.05H41.52a1,1,0,0,1-1-1Z"/><path class="cls-6" d="M37.93,29.79H26.62a1,1,0,0,1,0-2.05H37.93a1,1,0,0,1,0,2.05Z"/><path class="cls-7" d="M32.78,33.5H26.65a1,1,0,0,1,0-2.05h6.13a1,1,0,0,1,.16,2.05Z"/><path class="cls-8" d="M32.78,72.07H26.65a1,1,0,0,1,0-2h6.13a1,1,0,0,1,.16,2A.43.43,0,0,1,32.78,72.07Z"/><path class="cls-9" d="M31.28,40.28H63.81a1.47,1.47,0,0,0,.85-2.64,29.33,29.33,0,0,0-34.23,0,1.46,1.46,0,0,0-.3,2A1.43,1.43,0,0,0,31.28,40.28Z"/><path class="cls-10" d="M63.81,56.88H31.28a1.46,1.46,0,0,0-.85,2.65,29.29,29.29,0,0,0,34.23,0,1.46,1.46,0,0,0-.85-2.65Z"/><path class="cls-11" d="M42.87,65.83,35.16,77.49a2.08,2.08,0,0,0,.59,2.89,2,2,0,0,0,1.15.35H70.75a2.09,2.09,0,0,0,2.08-2.09,2.12,2.12,0,0,0-.34-1.15L64.78,65.83a13.11,13.11,0,0,0-21.92,0Z"/><path class="cls-12" d="M64.78,65.83a13.15,13.15,0,0,0-21.66-.4v15.3H70.75a2.1,2.1,0,0,0,2.09-2.09,2,2,0,0,0-.35-1.15Z"/><path class="cls-13" d="M35.16,77.49a2.08,2.08,0,0,0,.59,2.89,2,2,0,0,0,1.15.35H70.75a2.09,2.09,0,0,0,2.08-2.09,2.12,2.12,0,0,0-.34-1.15l-3.35-5.07H38.48Z"/><path class="cls-14" d="M58.13,77.44l-.73,1.11a1.4,1.4,0,0,0,.39,1.94,1.36,1.36,0,0,0,.78.24H81.33a1.4,1.4,0,0,0,1.4-1.4,1.36,1.36,0,0,0-.24-.78l-.73-1.11a14.14,14.14,0,0,0-23.63,0Z"/><path class="cls-15" d="M58.13,77.44l-.73,1.11a1.4,1.4,0,0,0,.39,1.94,1.36,1.36,0,0,0,.78.24H81.33a1.4,1.4,0,0,0,1.4-1.4,1.36,1.36,0,0,0-.24-.78l-.73-1.11a14,14,0,0,0-5.76-5H63.9A14,14,0,0,0,58.13,77.44Z"/><circle class="cls-16" cx="52.55" cy="64.26" r="1.8"/><circle class="cls-17" cx="48.77" cy="76.49" r="1.8"/><circle class="cls-18" cx="57.03" cy="67.04" r="1.23"/><circle class="cls-19" cx="42.12" cy="72.93" r="1.23"/><circle class="cls-20" cx="50.22" cy="69.93" r="0.89"/><circle class="cls-21" cx="57.22" cy="74.28" r="0.89"/><circle class="cls-22" cx="72.72" cy="76.93" r="1.8"/><circle class="cls-23" cx="64.56" cy="76.71" r="1.23"/><circle class="cls-24" cx="69.85" cy="73.12" r="0.89"/><circle class="cls-25" cx="77.7" cy="77.12" r="0.89"/><text class="cls-26" transform="translate(34.45 51.74)">RMC</text></g></g></g></g></svg>