<svg xmlns="http://www.w3.org/2000/svg" viewBox="0 0 47.5 44.5"><defs><style>.cls-1{isolation:isolate;}.cls-2{fill:#505050;}</style></defs><g id="Layer_2" data-name="Layer 2"><g id="Ñëîé_1" data-name="Ñëîé 1"><g id="g6703" class="cls-1"><g id="path5514"><path class="cls-2" d="M23.75,44.5a12.76,12.76,0,0,1-12-17,.75.75,0,0,1,1-.45.76.76,0,0,1,.46,1,11.1,11.1,0,0,0-.66,3.78A11.25,11.25,0,1,0,25.7,20.67.75.75,0,1,1,26,19.19,12.75,12.75,0,0,1,23.75,44.5Z"/></g><g id="path5512"><path class="cls-2" d="M36.66,25.35a.75.75,0,0,1-.74-.63.74.74,0,0,1,.62-.86A11.25,11.25,0,1,0,26.12,5.53a.76.76,0,0,1-1.06.1A.77.77,0,0,1,25,4.57,12.75,12.75,0,1,1,36.78,25.34Z"/></g><g id="path5406"><path class="cls-2" d="M12.75,25.5A12.75,12.75,0,1,1,25.5,12.75,12.76,12.76,0,0,1,12.75,25.5Zm0-24A11.25,11.25,0,1,0,24,12.75,11.27,11.27,0,0,0,12.75,1.5Z"/></g><g id="circle5516"><circle class="cls-2" cx="8.75" cy="9.75" r="1.5"/></g><g id="circle5518"><circle class="cls-2" cx="16.75" cy="9.75" r="1.5"/></g><g id="circle5529"><circle class="cls-2" cx="30.75" cy="9.75" r="1.5"/></g><g id="circle5531"><circle class="cls-2" cx="38.75" cy="9.75" r="1.5"/></g><g id="path5537"><path class="cls-2" d="M12.75,19.5a6.75,6.75,0,0,1-5-2.25.75.75,0,0,1,1.12-1,5.24,5.24,0,0,0,7.82,0,.75.75,0,0,1,1.12,1A6.75,6.75,0,0,1,12.75,19.5Z"/></g><g id="path5544"><path class="cls-2" d="M39.22,18.49a.73.73,0,0,1-.56-.25,5.24,5.24,0,0,0-7.82,0,.75.75,0,0,1-1.12-1,6.75,6.75,0,0,1,10.06,0,.76.76,0,0,1-.06,1.06A.73.73,0,0,1,39.22,18.49Z"/></g><g id="circle5546"><circle class="cls-2" cx="19.75" cy="28.75" r="1.5"/></g><g id="circle5548"><circle class="cls-2" cx="27.75" cy="28.75" r="1.5"/></g><g id="path5550"><path class="cls-2" d="M28.22,36.5H19.28a.75.75,0,0,1,0-1.5h8.94a.75.75,0,0,1,0,1.5Z"/></g></g></g></g></svg>