<svg xmlns="http://www.w3.org/2000/svg" viewBox="0 0 103 97"><defs><style>.cls-1{fill:#ffb73e;}.cls-1,.cls-3,.cls-4{fill-rule:evenodd;}.cls-2{isolation:isolate;font-size:8.85px;font-family:Roboto-Medium, Roboto;font-weight:500;}.cls-3{fill:#f65252;}.cls-4{fill:#4ddc6d;}.cls-5{fill:none;stroke:#d9d9d9;stroke-miterlimit:10;}</style></defs><g id="Layer_2" data-name="Layer 2"><g id="Layer_1-2" data-name="Layer 1"><path class="cls-1" d="M66.3,49.5a1.48,1.48,0,0,0,1.6-1.4V39.9a1.48,1.48,0,0,0-1.6-1.4H23.2v11Z"/><text class="cls-2" transform="translate(30.84 46.59)">Good</text><path class="cls-3" d="M55.2,30.1a1.48,1.48,0,0,0,1.6-1.4V20.5a1.48,1.48,0,0,0-1.6-1.4h-32v11Z"/><text class="cls-2" transform="translate(30.84 27.17)">Fair</text><path class="cls-4" d="M78.3,68.9a1.48,1.48,0,0,0,1.6-1.4V59.3a1.48,1.48,0,0,0-1.6-1.4H24v11Z"/><text class="cls-2" transform="translate(30.84 66.01)">Very Good</text><line class="cls-5" x1="23.1" y1="14.4" x2="23.1" y2="82.7"/><ellipse class="cls-5" cx="51.5" cy="48.5" rx="51" ry="48"/></g></g></svg>