<svg xmlns="http://www.w3.org/2000/svg" viewBox="0 0 122.14 122.88"><defs><style>.cls-1{fill:#d1d1d1;}.cls-1,.cls-2,.cls-3,.cls-4{stroke:#000;stroke-miterlimit:10;}.cls-2{fill:#c7c7c7;}.cls-3{fill:#d8d8d8;}.cls-4{fill:none;}</style></defs><g id="Layer_2" data-name="Layer 2"><g id="Layer_1-2" data-name="Layer 1"><polygon class="cls-1" points="120.93 1.22 83.75 38.26 0.53 38.57 0.53 38.56 35.91 1.06 120.93 1.22"/><polygon class="cls-2" points="120.93 1.22 120.06 85.53 83.75 121.68 83.75 38.26 120.93 1.22"/><polygon class="cls-3" points="83.94 38.31 83.94 121.72 0.5 121.46 0.72 38.61 83.94 38.31"/><path class="cls-4" d="M70.86,12.35,40.55,23.5l5.18,7.59c-.49,2-1,4-1.46,6L36.14,45.8,27,58l12.54.35,11,8.38"/><path class="cls-4" d="M31.69,51.89l-10.81,3"/><path class="cls-4" d="M27.16,57.73l-7.23,8.58"/><line class="cls-4" x1="71.99" y1="16.88" x2="59.66" y2="16.47"/></g></g></svg>