<svg xmlns="http://www.w3.org/2000/svg" xmlns:xlink="http://www.w3.org/1999/xlink" viewBox="0 0 103 97"><defs><style>.cls-1{fill:none;stroke:#d9d9d9;stroke-miterlimit:10;}.cls-2{fill:url(#linear-gradient);}.cls-3{fill:#b5b8dd;}.cls-4{fill:url(#linear-gradient-2);}.cls-5{fill:url(#linear-gradient-3);}.cls-6,.cls-7{isolation:isolate;}.cls-7{font-size:7.09px;fill:#010101;font-family:Montserrat-Bold, Montserrat;font-weight:700;}</style><linearGradient id="linear-gradient" x1="25.1" y1="920.51" x2="77.9" y2="920.51" gradientTransform="matrix(1, 0, 0, -1, 0, 969.01)" gradientUnits="userSpaceOnUse"><stop offset="0" stop-color="#939598"/><stop offset="0.17" stop-color="#76777a"/><stop offset="0.36" stop-color="#5f5f61"/><stop offset="0.55" stop-color="#4e4e50"/><stop offset="0.76" stop-color="#444345"/><stop offset="1" stop-color="#414042"/></linearGradient><linearGradient id="linear-gradient-2" x1="29.03" y1="948.7" x2="40.75" y2="948.7" xlink:href="#linear-gradient"/><linearGradient id="linear-gradient-3" x1="27.58" y1="952.05" x2="42.2" y2="952.05" xlink:href="#linear-gradient"/></defs><g id="Layer_2" data-name="Layer 2"><g id="Layer_1-2" data-name="Layer 1"><ellipse class="cls-1" cx="51.5" cy="48.5" rx="51" ry="48"/><g id="Layer_2-2" data-name="Layer 2"><g id="Layer_1-2-2" data-name="Layer 1-2"><path class="cls-2" d="M25.1,26.09V74.33a8.07,8.07,0,0,0,8.07,8.07H69.84a8.08,8.08,0,0,0,8.06-8.07V24a3.54,3.54,0,0,0-3.54-3.55H72.75V16.36A1.76,1.76,0,0,0,71,14.6H48.06a1.76,1.76,0,0,0-1.77,1.76h0v4.12L42.83,22,29,22.14a4,4,0,0,0-3.87,3.95ZM48.73,17H70.35v3.53H48.73Z"/><path class="cls-3" d="M35,69.1v-37A2.07,2.07,0,0,1,37.1,30H66.61a2.07,2.07,0,0,1,2.06,2.07v37a2.07,2.07,0,0,1-2.06,2.07H37.1A2.07,2.07,0,0,1,35,69.1Z"/><path class="cls-4" d="M29,18.6H40.75V22H29Z"/><path class="cls-5" d="M27.58,15.3H42.2v3.3H27.58Z"/><g class="cls-6"><text class="cls-7" transform="translate(37.47 44.1)">SUPER-</text><text class="cls-7" transform="translate(37.47 52.61)">PLASTI-</text><text class="cls-7" transform="translate(37.47 61.11)">CIZER</text></g></g></g></g></g></svg>